<svg width="18" height="20" viewBox="0 0 18 20" fill="none" xmlns="http://www.w3.org/2000/svg">
<path d="M5 12C4.71667 12 4.479 11.904 4.287 11.712C4.09567 11.5207 4 11.2833 4 11C4 10.7167 4.09567 10.479 4.287 10.287C4.479 10.0957 4.71667 10 5 10H13C13.2833 10 13.5207 10.0957 13.712 10.287C13.904 10.479 14 10.7167 14 11C14 11.2833 13.904 11.5207 13.712 11.712C13.5207 11.904 13.2833 12 13 12H5ZM5 16C4.71667 16 4.479 15.904 4.287 15.712C4.09567 15.5207 4 15.2833 4 15C4 14.7167 4.09567 14.4793 4.287 14.288C4.479 14.096 4.71667 14 5 14H10C10.2833 14 10.521 14.096 10.713 14.288C10.9043 14.4793 11 14.7167 11 15C11 15.2833 10.9043 15.5207 10.713 15.712C10.521 15.904 10.2833 16 10 16H5ZM2 20C1.45 20 0.979 19.8043 0.587 19.413C0.195667 19.021 0 18.55 0 18V4C0 3.45 0.195667 2.97933 0.587 2.588C0.979 2.196 1.45 2 2 2H3V1C3 0.716667 3.09567 0.479 3.287 0.287C3.479 0.0956666 3.71667 0 4 0C4.28333 0 4.521 0.0956666 4.713 0.287C4.90433 0.479 5 0.716667 5 1V2H13V1C13 0.716667 13.096 0.479 13.288 0.287C13.4793 0.0956666 13.7167 0 14 0C14.2833 0 14.5207 0.0956666 14.712 0.287C14.904 0.479 15 0.716667 15 1V2H16C16.55 2 17.021 2.196 17.413 2.588C17.8043 2.97933 18 3.45 18 4V18C18 18.55 17.8043 19.021 17.413 19.413C17.021 19.8043 16.55 20 16 20H2ZM2 18H16V8H2V18Z" fill="#333D47"/>
</svg>
